 Mei, a young girl whose memory holds a priceless numerical code, finds herself pursued by the Triads, the Russian mob, and corrupt NYC cops. Coming to her aid is an ex-cage fighter whose life was destroyed by the gangsters on Mei's trail. 
 
http://www.imdb.com/title/tt1656190/
 
http://img62.imageshack.us/img62/2317/f629f4aa3f.png 
http://img201.imageshack.us/img201/7522/f354c52d86.png

source Video: Za****nik.2012.D.DVDRip.avi
 Source Audio: UnKnOwN (Thanks)
 
Complete name : Safe.2012.R5.LiNE.XviD-YanKeeS.avi
 Format : AVI
 Format/Info : Audio Video Interleave
 Format profile : OpenDML
 File size : 700 MiB
 Duration : 1h 30mn
 Overall bit rate : 1 083 Kbps
 
Video
 ID : 0
 Format : MPEG-4 Visual
 Format profile : Advanced Simple@L5
 Format settings, BVOP : 2
 Format settings, QPel : No
 Format settings, GMC : No warppoints
 Format settings, Matrix : Custom
 Codec ID : XVID
 Codec ID/Hint : XviD
 Duration : 1h 30mn
 Bit rate : 946 Kbps
 Width : 720 pixels
 Height : 304 pixels
 Display aspect ratio : 2.35:1
 Frame rate : 25.000 fps
 Color space : YUV
 Chroma subsampling : 4:2:0
 Bit depth : 8 bits
 Scan type : Progressive
 Compression mode : Lossy
 Bits/(Pixel*Frame) : 0.173
 Stream size : 611 MiB (87%)
 Writing library : XviD 1.2.1 (UTC 2008-12-04)
 
Audio
 ID : 1
 Format : MPEG Audio
 Format version : Version 1
 Format profile : Layer 3
 Mode : Joint stereo
 Mode extension : MS Stereo
 Codec ID : 55
 Codec ID/Hint : MP3
 Duration : 1h 30mn
 Bit rate mode : Constant
 Bit rate : 128 Kbps
 Channel(s) : 2 channels
 Sampling rate : 48.0 KHz
 Compression mode : Lossy
 Stream size : 82.7 MiB (12%)
 Alignment : Aligned on interleaves
 Interleave, duration : 24 ms (0.60 video frame)
 Interleave, preload duration : 192 ms
 Title : English - YanKeeS 